<?xml version="1.0" encoding="UTF-8" standalone="no"?>
<!DOCTYPE svg PUBLIC "-//W3C//DTD SVG 1.1//EN" "http://www.w3.org/Graphics/SVG/1.1/DTD/svg11.dtd">
<svg width="100%" height="100%" viewBox="0 0 300 12" version="1.1" xmlns="http://www.w3.org/2000/svg" xmlns:xlink="http://www.w3.org/1999/xlink" xml:space="preserve" xmlns:serif="http://www.serif.com/" style="fill-rule:evenodd;clip-rule:evenodd;stroke-linejoin:round;stroke-miterlimit:2;">
    <g transform="matrix(1,0,0,0.8,-40,-157.6)">
        <path d="M190,212C190,212 187.039,208.667 182.599,207.833C180.58,207.455 177.664,210.056 177.664,210.056C177.664,210.056 172.319,206.907 170.263,206.722C168.207,206.537 165.329,208.944 165.329,208.944C165.329,208.944 161.628,206.907 160.395,206.722C159.291,206.557 157.928,207.833 157.928,207.833C157.928,207.833 154.227,205.75 152.993,205.611C151.76,205.472 150.526,207 150.526,207C150.526,207 149.539,205.333 143.618,205.333C128.766,205.333 75.362,205.056 60.724,205.333C57.932,205.386 54.803,206.167 54.803,206.167C54.803,206.167 54.778,204.621 48.418,205.133C45.921,205.333 45.921,206.167 45.921,206.167L40,204.5L45.921,202.833C45.921,202.833 45.921,203.667 48.408,203.87C54.777,204.391 54.803,202.833 54.803,202.833C54.803,202.833 57.936,203.616 60.724,203.667C75.362,203.935 143.618,203.611 143.618,203.611C149.54,203.583 150.526,202 150.526,202C150.526,202 151.76,203.528 152.993,203.389C154.227,203.25 157.928,201.167 157.928,201.167C157.928,201.167 159.291,202.443 160.395,202.278C161.628,202.093 165.329,200.056 165.329,200.056C165.329,200.056 168.207,202.463 170.263,202.278C172.319,202.093 177.664,198.944 177.664,198.944C177.664,198.944 180.58,201.545 182.599,201.167C187.039,200.333 190,197 190,197C190,197 192.961,200.333 197.401,201.167C199.42,201.545 202.336,198.944 202.336,198.944C202.336,198.944 207.681,202.093 209.737,202.278C211.793,202.463 214.671,200.056 214.671,200.056C214.671,200.056 218.372,202.093 219.605,202.278C220.709,202.443 222.072,201.167 222.072,201.167C222.072,201.167 225.773,203.25 227.007,203.389C228.24,203.528 229.474,202 229.474,202C229.474,202 230.46,203.583 236.382,203.611C236.382,203.611 304.638,203.935 319.276,203.667C322.064,203.616 325.197,202.833 325.197,202.833C325.197,202.833 325.223,204.391 331.592,203.87C334.079,203.667 334.079,202.833 334.079,202.833L340,204.5L334.079,206.167C334.079,206.167 334.079,205.333 331.582,205.133C325.222,204.621 325.197,206.167 325.197,206.167C325.197,206.167 322.068,205.386 319.276,205.333C304.638,205.056 251.234,205.333 236.382,205.333C230.461,205.333 229.474,207 229.474,207C229.474,207 228.24,205.472 227.007,205.611C225.773,205.75 222.072,207.833 222.072,207.833C222.072,207.833 220.709,206.557 219.605,206.722C218.372,206.907 214.671,208.944 214.671,208.944C214.671,208.944 211.793,206.537 209.737,206.722C207.681,206.907 202.336,210.056 202.336,210.056C202.336,210.056 199.42,207.455 197.401,207.833C192.961,208.667 190,212 190,212ZM190,199.405L186.513,200.975L186.495,200.967L184.518,201.845C184.518,201.845 185.91,202.68 186.495,202.722C188.026,202.833 190,200.333 190,200.333C190,200.333 191.974,202.833 193.505,202.722C194.09,202.68 195.482,201.845 195.482,201.845L193.505,200.967L193.487,200.975L190,199.405ZM190,202.833C190,202.833 189.013,203.182 187.838,203.712C187.325,203.943 186.053,204.5 186.053,204.5C186.053,204.5 187.246,205.024 187.839,205.289C188.496,205.582 190,206.262 190,206.262C190,206.262 191.504,205.582 192.161,205.289C192.754,205.024 193.947,204.5 193.947,204.5C193.947,204.5 192.675,203.943 192.162,203.712C190.987,203.182 190,202.833 190,202.833ZM190,208.667C190,208.667 188.026,206.167 186.511,206.278C185.931,206.32 184.551,207.144 184.551,207.144L186.1,207.828L186.088,207.833L190,209.595L193.912,207.833L193.9,207.828L195.449,207.144C195.449,207.144 194.069,206.32 193.489,206.278C191.974,206.167 190,208.667 190,208.667ZM224.023,205.384C224.023,205.384 222.999,205.302 222.554,205.394C222.108,205.487 221.35,205.937 221.35,205.937L222.072,206.262L224.023,205.384ZM207.041,205.508C206.124,205.443 203.805,205.285 202.49,205.542C201.174,205.798 199.146,207.048 199.146,207.048L202.336,208.484L207.992,205.937C207.992,205.937 207.484,205.54 207.041,205.508ZM212.55,203.545C213.423,203.63 215.833,203.658 216.719,203.578C217.246,203.53 217.861,203.063 217.861,203.063L214.671,201.627L211.481,203.063C211.481,203.063 212.058,203.496 212.55,203.545ZM216.752,205.437C215.862,205.359 213.4,205.385 212.522,205.468C212.042,205.514 211.481,205.937 211.481,205.937L214.671,207.373L217.861,205.937C217.861,205.937 217.265,205.482 216.752,205.437ZM195.905,203.412C196.164,203.528 198.702,203.548 198.951,203.436C199.2,203.324 197.401,202.738 197.401,202.738C197.401,202.738 195.647,203.295 195.905,203.412ZM198.943,205.568C198.694,205.456 196.166,205.474 195.909,205.59C195.652,205.706 197.401,206.262 197.401,206.262C197.401,206.262 199.191,205.68 198.943,205.568ZM222.596,203.625C223.04,203.718 224.067,203.637 224.067,203.637L222.072,202.738L221.35,203.063C221.35,203.063 222.143,203.529 222.596,203.625ZM202.503,203.464C203.816,203.722 206.107,203.567 207.022,203.5C207.474,203.467 207.992,203.063 207.992,203.063L202.336,200.516L199.146,201.952C199.146,201.952 201.19,203.206 202.503,203.464ZM167.45,203.545C167.942,203.496 168.519,203.063 168.519,203.063L165.329,201.627L162.139,203.063C162.139,203.063 162.754,203.53 163.281,203.578C164.167,203.658 166.577,203.63 167.45,203.545ZM181.057,205.568C180.809,205.68 182.599,206.262 182.599,206.262C182.599,206.262 184.348,205.706 184.091,205.59C183.834,205.474 181.306,205.456 181.057,205.568ZM184.095,203.412C184.353,203.295 182.599,202.738 182.599,202.738C182.599,202.738 180.8,203.324 181.049,203.436C181.298,203.548 183.836,203.528 184.095,203.412ZM157.404,203.625C157.857,203.529 158.65,203.063 158.65,203.063L157.928,202.738L155.933,203.637C155.933,203.637 156.96,203.718 157.404,203.625ZM163.248,205.437C162.735,205.482 162.139,205.937 162.139,205.937L165.329,207.373L168.519,205.937C168.519,205.937 167.958,205.514 167.478,205.468C166.6,205.385 164.138,205.359 163.248,205.437ZM177.497,203.464C178.81,203.206 180.854,201.952 180.854,201.952L177.664,200.516L172.008,203.063C172.008,203.063 172.526,203.467 172.978,203.5C173.893,203.567 176.184,203.722 177.497,203.464ZM172.959,205.508C172.516,205.54 172.008,205.937 172.008,205.937L177.664,208.484L180.854,207.048C180.854,207.048 178.826,205.798 177.51,205.542C176.195,205.285 173.876,205.443 172.959,205.508ZM155.977,205.384L157.928,206.262L158.65,205.937C158.65,205.937 157.892,205.487 157.446,205.394C157.001,205.302 155.977,205.384 155.977,205.384Z"/>
    </g>
</svg>
