<?xml version="1.0" encoding="iso-8859-1"?>
<!-- Generator: Adobe Illustrator 29.5.1, SVG Export Plug-In . SVG Version: 9.03 Build 0)  -->
<svg version="1.1" id="Layer_1" xmlns:serif="http://www.serif.com/"
	 xmlns="http://www.w3.org/2000/svg" xmlns:xlink="http://www.w3.org/1999/xlink" x="0px" y="0px" viewBox="0 0 409.102 18.685"
	 style="enable-background:new 0 0 409.102 18.685;" xml:space="preserve">
<g transform="matrix(1,0,0,0.8,-40,-157.6)">
	<g>
		<path style="fill-rule:evenodd;clip-rule:evenodd;fill:#D4C484;" d="M244.215,219.144c-0.039-0.044-3.916-4.333-9.607-5.403
			c-0.158-0.029-0.321-0.043-0.488-0.043c-2.446,0-5.695,2.869-5.728,2.898l-0.238,0.212l-0.265-0.156
			c-0.07-0.042-7.074-4.152-9.69-4.386c-0.09-0.009-0.182-0.012-0.274-0.012c-2.525,0-5.957,2.842-5.991,2.871l-0.228,0.19
			l-0.251-0.138c-1.354-0.746-5.149-2.721-6.437-2.915c-0.07-0.01-0.141-0.015-0.213-0.015c-1.228,0-2.702,1.362-2.717,1.376
			l-0.236,0.22l-0.269-0.15c-1.352-0.76-5.14-2.766-6.42-2.91c-0.057-0.006-0.113-0.01-0.17-0.01c-1.34,0-2.708,1.666-2.722,1.683
			l-0.41,0.505l-0.343-0.577c-0.002-0.001-1.448-1.97-8.809-1.97c-5.355,0-14.469-0.027-25.304-0.059
			c-15.875-0.048-35.445-0.105-52.293-0.105c-16.318,0-27.086,0.054-32.92,0.164c-3.632,0.07-7.763,1.09-7.805,1.1l-0.585,0.146
			l-0.011-0.636c-0.122-0.172-0.922-1.016-4.891-1.016c-0.921,0-1.961,0.045-3.092,0.137c-2.232,0.179-2.763,0.731-2.861,0.869
			v0.668l-10.67-3.004l10.67-3.004v0.669c0.098,0.137,0.625,0.69,2.849,0.871c1.143,0.093,2.193,0.141,3.122,0.141
			c3.962,0,4.755-0.85,4.874-1.021l0.011-0.638l0.585,0.146c0.041,0.01,4.177,1.033,7.804,1.1
			c5.122,0.093,15.676,0.141,31.368,0.141c33.18,0,78.691-0.214,79.147-0.216c7.364-0.035,8.817-1.907,8.831-1.926l0.35-0.479
			l0.383,0.438c0.014,0.016,1.382,1.683,2.724,1.683c0.056,0,0.113-0.002,0.169-0.009c1.28-0.144,5.068-2.15,6.419-2.91l0.268-0.151
			l0.236,0.22c0.015,0.013,1.491,1.376,2.718,1.376c0.072,0,0.142-0.005,0.212-0.015c1.287-0.193,5.083-2.169,6.437-2.914
			l0.251-0.139l0.228,0.191c0.034,0.029,3.467,2.87,5.993,2.87c0.092,0,0.183-0.004,0.272-0.012c2.616-0.236,9.62-4.345,9.69-4.387
			l0.265-0.156l0.238,0.212c0.033,0.029,3.283,2.898,5.729,2.898c0.167,0,0.329-0.013,0.487-0.043
			c5.691-1.069,9.569-5.359,9.607-5.402l0.334-0.375l0.335,0.375c0.038,0.043,3.917,4.333,9.608,5.402
			c0.158,0.03,0.321,0.043,0.487,0.043c2.446,0,5.695-2.869,5.729-2.898l0.238-0.212l0.265,0.156
			c0.07,0.042,7.074,4.152,9.691,4.387c0.09,0.008,0.181,0.012,0.273,0.012c2.524,0,5.957-2.842,5.991-2.87l0.229-0.19l0.251,0.138
			c1.354,0.745,5.149,2.72,6.437,2.914c0.069,0.01,0.141,0.015,0.212,0.015c1.229,0,2.703-1.362,2.718-1.376l0.236-0.22l0.269,0.15
			c1.352,0.76,5.14,2.766,6.42,2.91c0.057,0.007,0.113,0.009,0.169,0.009c1.342,0,2.71-1.666,2.724-1.683l0.4-0.493l0.346,0.554
			c0.001-0.001,1.455,1.872,8.818,1.907c0.456,0.002,45.968,0.216,79.146,0.216c15.693,0,26.247-0.048,31.369-0.141
			c3.626-0.067,7.763-1.089,7.805-1.1l0.585-0.146l0.011,0.638c0.119,0.171,0.912,1.021,4.876,1.021c0.929,0,1.979-0.048,3.12-0.141
			c2.224-0.181,2.751-0.734,2.849-0.871v-0.669l10.67,3.004l-10.67,3.004v-0.668c-0.099-0.138-0.629-0.69-2.861-0.869
			c-1.132-0.092-2.173-0.138-3.095-0.138c-3.966,0-4.766,0.844-4.888,1.016l-0.01,0.637l-0.586-0.146
			c-0.042-0.01-4.172-1.03-7.806-1.1c-5.834-0.11-16.603-0.164-32.92-0.164c-16.85,0-36.419,0.057-52.294,0.105
			c-10.834,0.032-19.947,0.059-25.303,0.059c-7.36,0-8.807,1.969-8.82,1.989l-0.35,0.504l-0.393-0.45
			c-0.014-0.017-1.382-1.683-2.723-1.683c-0.057,0-0.113,0.004-0.17,0.01c-1.28,0.143-5.068,2.15-6.42,2.91l-0.269,0.151
			l-0.236-0.221c-0.015-0.013-1.488-1.376-2.717-1.376c-0.071,0-0.143,0.005-0.213,0.015c-1.287,0.194-5.082,2.169-6.437,2.915
			l-0.251,0.138l-0.229-0.19c-0.034-0.029-3.466-2.871-5.992-2.871c-0.092,0-0.183,0.004-0.272,0.012
			c-2.617,0.236-9.621,4.344-9.691,4.386l-0.265,0.156l-0.238-0.212c-0.033-0.029-3.282-2.898-5.728-2.898
			c-0.167,0-0.33,0.013-0.488,0.043c-5.693,1.069-9.572,5.359-9.61,5.403l-0.334,0.375L244.215,219.144z M249.07,211.671
			c-1.444,0-3.439,2.101-4.133,2.964l3.377-1.521l-0.013-0.006l1.281-0.58l0.864-0.381c-0.508-0.248-1.006-0.453-1.274-0.472
			L249.07,211.671z M244.162,214.634c-0.692-0.863-2.688-2.964-4.131-2.964l-0.103,0.004c-0.269,0.02-0.767,0.225-1.274,0.472
			l2.179,0.962l-0.029,0.013L244.162,214.634z M260.997,213.327l5.989-2.698c-0.892-0.061-2.009-0.125-3.139-0.125
			c-1.087,0-1.951,0.061-2.567,0.181c-0.977,0.19-2.291,0.828-3.211,1.323L260.997,213.327z M228.102,213.327l2.928-1.318
			c-0.92-0.496-2.234-1.133-3.211-1.323c-0.617-0.12-1.48-0.181-2.568-0.181c-1.13,0-2.247,0.063-3.138,0.125L228.102,213.327z
			 M211.655,211.846l2.79-1.256c-0.649-0.059-2-0.099-3.313-0.099c-0.967,0-1.774,0.022-2.215,0.061
			c-0.034,0.002-0.068,0.007-0.103,0.013L211.655,211.846z M277.443,211.845l2.841-1.279c-0.034-0.006-0.067-0.011-0.101-0.013
			c-0.441-0.039-1.251-0.061-2.221-0.061c-1.31,0-2.658,0.039-3.309,0.098L277.443,211.845z M241.836,209.143
			c0.722,0.322,2.21,0.994,2.712,1.221c0.502-0.228,1.991-0.9,2.713-1.222c0.282-0.126,0.666-0.296,1.044-0.463
			c-0.396-0.175-0.79-0.349-1.044-0.464c-1.243-0.56-2.338-0.972-2.712-1.109c-0.374,0.137-1.469,0.548-2.713,1.109
			c-0.255,0.115-0.649,0.289-1.044,0.464C241.17,208.846,241.554,209.017,241.836,209.143z M274.657,206.784
			c0.638,0.062,2.006,0.106,3.325,0.106c0.952,0,1.718-0.022,2.157-0.062c0.054-0.005,0.108-0.015,0.165-0.027l-2.858-1.287
			l-2.815,1.268C274.64,206.782,274.648,206.783,274.657,206.784z M208.797,206.8c0.056,0.013,0.111,0.023,0.165,0.027
			c0.439,0.04,1.206,0.061,2.158,0.061c1.32,0,2.687-0.043,3.325-0.105c0.008-0.001,0.017-0.002,0.026-0.003l-2.815-1.268
			L208.797,206.8z M258.072,205.35c0.926,0.497,2.249,1.14,3.227,1.331c0.62,0.122,1.486,0.184,2.575,0.184
			c1.232,0,2.493-0.081,3.134-0.127l-6.01-2.706L258.072,205.35z M222.094,206.738c0.639,0.045,1.896,0.127,3.134,0.127
			c1.087,0,1.953-0.062,2.573-0.184c0.977-0.192,2.3-0.834,3.227-1.331l-2.926-1.318L222.094,206.738z M244.939,202.727
			c0.694,0.864,2.692,2.961,4.149,2.961l0.104-0.004c0.275-0.02,0.786-0.232,1.304-0.486l-1.271-0.563l-0.196-0.067L244.939,202.727
			z M238.603,205.198c0.518,0.255,1.029,0.466,1.303,0.486l0.104,0.004c1.458,0,3.456-2.098,4.15-2.961l-4.261,1.918l-0.025-0.012
			L238.603,205.198z"/>
		<path style="fill:#576293;" d="M244.551,198.678c0,0,3.948,4.444,9.868,5.555c0.182,0.034,0.37,0.05,0.562,0.05
			c2.639,0,6.018-3.014,6.018-3.014s7.127,4.199,9.868,4.445c0.101,0.009,0.205,0.014,0.309,0.014c2.711,0,6.27-2.976,6.27-2.976
			s4.935,2.716,6.579,2.963c0.089,0.013,0.18,0.02,0.271,0.02c1.415,0,3.018-1.5,3.018-1.5s4.935,2.777,6.58,2.963
			c0.071,0.008,0.143,0.012,0.214,0.012c1.57,0,3.075-1.864,3.075-1.864s1.315,2.111,9.211,2.148c0,0,45.57,0.216,79.132,0.216
			c13.87,0,25.685-0.037,31.392-0.141c3.717-0.068,7.895-1.112,7.895-1.112s0.026,1.525,5.375,1.525
			c0.894,0,1.936-0.043,3.152-0.142c3.316-0.271,3.316-1.383,3.316-1.383l7.895,2.223l-7.895,2.223c0,0,0-1.112-3.329-1.379
			c-1.205-0.097-2.239-0.139-3.127-0.139c-5.361,0-5.386,1.517-5.386,1.517s-4.172-1.041-7.895-1.112
			c-6.505-0.123-18.756-0.164-32.928-0.164c-28.348,0-64.395,0.164-77.596,0.164c-7.895,0-9.211,2.223-9.211,2.223
			s-1.505-1.864-3.075-1.864c-0.071,0-0.143,0.004-0.214,0.012c-1.645,0.185-6.58,2.963-6.58,2.963s-1.603-1.5-3.017-1.5
			c-0.091,0-0.182,0.006-0.272,0.02c-1.644,0.247-6.579,2.963-6.579,2.963s-3.559-2.976-6.271-2.976
			c-0.104,0-0.207,0.004-0.308,0.013c-2.741,0.247-9.868,4.445-9.868,4.445s-3.379-3.014-6.018-3.014
			c-0.192,0-0.38,0.016-0.562,0.05c-5.922,1.112-9.87,5.555-9.87,5.555s-3.948-4.444-9.868-5.555c-0.182-0.034-0.37-0.05-0.562-0.05
			c-2.639,0-6.018,3.014-6.018,3.014s-7.127-4.199-9.868-4.445c-0.101-0.009-0.205-0.014-0.309-0.014
			c-2.711,0-6.27,2.976-6.27,2.976s-4.935-2.716-6.579-2.963c-0.089-0.013-0.18-0.02-0.272-0.02c-1.415,0-3.017,1.5-3.017,1.5
			s-4.935-2.777-6.58-2.963c-0.071-0.008-0.143-0.012-0.214-0.012c-1.57,0-3.075,1.864-3.075,1.864s-1.316-2.223-9.211-2.223
			c-13.201,0-49.25-0.164-77.596-0.164c-14.176,0-26.422,0.041-32.928,0.164c-3.723,0.071-7.895,1.112-7.895,1.112
			s-0.025-1.517-5.388-1.517c-0.888,0-1.921,0.042-3.125,0.138c-3.329,0.267-3.329,1.379-3.329,1.379l-7.895-2.223l7.895-2.223
			c0,0,0,1.112,3.316,1.383c1.216,0.1,2.26,0.142,3.154,0.142c5.348,0,5.373-1.525,5.373-1.525s4.177,1.044,7.895,1.112
			c5.706,0.104,17.526,0.141,31.392,0.141c33.563,0,79.133-0.216,79.133-0.216c7.896-0.037,9.211-2.148,9.211-2.148
			s1.505,1.864,3.075,1.864c0.071,0,0.143-0.004,0.214-0.012c1.645-0.185,6.58-2.963,6.58-2.963s1.603,1.5,3.017,1.5
			c0.091,0,0.182-0.006,0.272-0.02c1.644-0.247,6.579-2.963,6.579-2.963s3.559,2.976,6.271,2.976c0.104,0,0.207-0.004,0.308-0.013
			c2.741-0.247,9.868-4.445,9.868-4.445s3.379,3.014,6.018,3.014c0.192,0,0.38-0.016,0.562-0.05
			C240.603,203.122,244.551,198.678,244.551,198.678 M239.901,203.98l-0.024-0.011l-2.636,1.171c0,0,1.856,1.113,2.636,1.169
			c0.044,0.003,0.089,0.005,0.134,0.005c2.02,0,4.539-3.189,4.539-3.189s2.519,3.189,4.539,3.189c0.045,0,0.089-0.002,0.134-0.005
			c0.78-0.056,2.636-1.169,2.636-1.169l-2.636-1.171l-0.024,0.011l-4.649-2.093L239.901,203.98 M263.874,207.49
			c1.333,0,2.663-0.092,3.372-0.143c0.603-0.044,1.293-0.583,1.293-0.583l-7.541-3.396l-4.253,1.915c0,0,2.725,1.672,4.476,2.016
			C261.954,207.442,262.915,207.49,263.874,207.49 M225.227,207.49c0.959,0,1.92-0.047,2.652-0.191
			c1.751-0.344,4.476-2.016,4.476-2.016l-4.253-1.915l-7.541,3.396c0,0,0.691,0.539,1.293,0.583
			C222.564,207.398,223.894,207.49,225.227,207.49 M277.982,207.514c0.885,0,1.709-0.02,2.193-0.063
			c0.703-0.064,1.523-0.687,1.523-0.687l-4.253-1.915l-4.253,1.915c-0.002,0,0.768,0.577,1.424,0.643
			C275.304,207.473,276.706,207.514,277.982,207.514 M211.122,207.513c1.275,0,2.675-0.04,3.361-0.107
			c0.656-0.065,1.425-0.643,1.425-0.643l-4.253-1.915l-4.253,1.915c0,0,0.82,0.623,1.523,0.687
			C209.409,207.494,210.236,207.513,211.122,207.513 M288.864,207.572c0.555,0,1.107-0.044,1.107-0.044l-2.66-1.199l-0.963,0.433
			c0.001,0.001,1.058,0.622,1.662,0.75C288.227,207.558,288.546,207.572,288.864,207.572 M254.722,207.36
			c0.836,0,1.611-0.032,1.762-0.099c0.332-0.149-2.067-0.931-2.067-0.931s-2.338,0.743-1.994,0.899
			C252.612,207.313,253.711,207.36,254.722,207.36 M234.373,207.36c1.012,0,2.114-0.046,2.304-0.131
			c0.344-0.156-1.995-0.899-1.995-0.899s-2.399,0.781-2.067,0.931C232.765,207.328,233.539,207.36,234.373,207.36 M199.127,207.53
			C199.127,207.53,199.127,207.53,199.127,207.53c0.008,0,0.556,0.043,1.106,0.043c0.319,0,0.639-0.014,0.856-0.06
			c0.604-0.128,1.661-0.749,1.661-0.749l-0.963-0.433L199.127,207.53 M244.549,211.028c0,0,2.005-0.907,2.881-1.297
			c0.791-0.353,2.381-1.052,2.381-1.052s-1.696-0.743-2.38-1.051c-1.565-0.706-2.881-1.172-2.881-1.172s-1.316,0.465-2.883,1.172
			c-0.684,0.308-2.38,1.051-2.38,1.051s1.591,0.699,2.381,1.052C242.544,210.122,244.549,211.028,244.549,211.028 M201.787,211.029
			l0.963-0.433c0,0-1.011-0.6-1.605-0.724c-0.214-0.045-0.528-0.059-0.843-0.059c-0.558,0-1.116,0.045-1.116,0.045L201.787,211.029
			 M287.313,211.028l2.601-1.17c0,0-0.561-0.045-1.12-0.045c-0.313,0-0.626,0.014-0.839,0.058c-0.595,0.124-1.605,0.724-1.605,0.724
			L287.313,211.028 M277.444,212.509l4.253-1.915l0,0c0,0,0,0,0,0l0,0c-0.001,0-0.795-0.606-1.478-0.666
			c-0.491-0.043-1.34-0.062-2.249-0.062c-1.291,0-2.704,0.039-3.391,0.103c-0.64,0.061-1.388,0.625-1.388,0.625L277.444,212.509
			 M211.655,212.51l4.253-1.915c0,0-0.748-0.564-1.388-0.625c-0.687-0.065-2.103-0.104-3.395-0.104
			c-0.908,0-1.754,0.019-2.243,0.062c-0.684,0.06-1.479,0.667-1.479,0.667L211.655,212.51 M260.997,213.991l7.541-3.396
			c0.001,0-0.676-0.529-1.267-0.572c-0.715-0.051-2.07-0.144-3.422-0.144c-0.96,0-1.918,0.047-2.646,0.189
			c-1.755,0.341-4.459,2.008-4.459,2.008L260.997,213.991 M228.102,213.991l4.253-1.915c0,0-2.704-1.667-4.459-2.008
			c-0.728-0.142-1.686-0.189-2.646-0.189c-1.352,0-2.706,0.093-3.421,0.144c-0.591,0.043-1.268,0.572-1.268,0.572L228.102,213.991
			 M234.682,211.028c0,0,2.332-0.741,1.989-0.896c-0.186-0.084-1.263-0.129-2.263-0.129c-0.843,0-1.63,0.032-1.782,0.1
			C232.295,210.252,234.682,211.028,234.682,211.028 M254.418,211.028c0,0,2.387-0.776,2.056-0.925
			c-0.152-0.068-0.937-0.1-1.777-0.1c-1.001,0-2.082,0.045-2.268,0.129C252.087,210.286,254.418,211.028,254.418,211.028
			 M244.55,214.235c0,0-2.519-3.189-4.52-3.189c-0.044,0-0.089,0.002-0.132,0.005c-0.773,0.056-2.613,1.155-2.613,1.155l2.065,0.912
			l-0.016,0.007l5.216,2.349l5.216-2.349l-0.016-0.007l2.065-0.912c0,0-1.84-1.099-2.613-1.155
			c-0.044-0.003-0.088-0.005-0.132-0.005C247.069,211.045,244.55,214.235,244.55,214.235 M244.55,197l-0.668,0.749
			c-0.084,0.093-3.851,4.216-9.347,5.248c-0.128,0.024-0.267,0.036-0.413,0.036c-1.895,0-4.568-2.008-5.438-2.782l-0.477-0.424
			l-0.53,0.311c-1.936,1.14-7.419,4.14-9.514,4.329c-0.077,0.007-0.156,0.01-0.236,0.01c-1.969,0-4.793-1.996-5.716-2.765
			l-0.456-0.38l-0.502,0.276c-1.856,1.021-5.206,2.702-6.295,2.866c-0.05,0.007-0.101,0.011-0.152,0.011
			c-0.878,0-2.044-0.904-2.42-1.253l-0.471-0.438l-0.537,0.3c-1.849,1.041-5.184,2.737-6.259,2.857
			c-0.041,0.005-0.083,0.007-0.124,0.007c-0.939,0-2.031-1.086-2.373-1.504l-0.93-1.138l-0.543,1.221
			c-0.251,0.239-2.029,1.675-8.443,1.705c-0.456,0.002-45.952,0.216-79.129,0.216c-15.697,0-26.254-0.048-31.377-0.141
			c-3.579-0.065-7.673-1.077-7.714-1.088l-1.171-0.292l-0.018,1.079c-0.325,0.216-1.398,0.714-4.38,0.714
			c-0.918,0-1.957-0.047-3.089-0.14c-1.487-0.122-2.134-0.414-2.381-0.57v-1.129l-1.22,0.343l-7.895,2.223L40,208.678l4.331,1.219
			l7.895,2.223l1.22,0.343v-1.127c0.249-0.156,0.899-0.448,2.393-0.568c1.122-0.09,2.151-0.136,3.061-0.136
			c2.987,0,4.066,0.495,4.395,0.711l0.018,1.074l1.17-0.292c0.041-0.01,4.13-1.019,7.715-1.088
			c5.832-0.11,16.597-0.164,32.913-0.164c16.847,0,36.5,0.058,52.292,0.105c10.835,0.032,19.95,0.059,25.305,0.059
			c6.426,0,8.184,1.513,8.424,1.756l0.617,1.433l0.874-1.328c0.34-0.416,1.432-1.502,2.371-1.502c0.041,0,0.083,0.002,0.124,0.007
			c1.075,0.122,4.41,1.817,6.259,2.858l0.538,0.303l0.472-0.442c0.374-0.347,1.54-1.251,2.418-1.251
			c0.052,0,0.103,0.003,0.153,0.011c1.089,0.164,4.439,1.844,6.295,2.866l0.502,0.276l0.457-0.381
			c0.922-0.769,3.747-2.766,5.714-2.766c0.08,0,0.159,0.003,0.237,0.01c2.095,0.188,7.578,3.188,9.514,4.329l0.529,0.312
			l0.477-0.425c0.87-0.774,3.543-2.782,5.438-2.782c0.146,0,0.286,0.012,0.414,0.036c5.53,1.039,9.31,5.207,9.348,5.249l0.669,0.748
			l0.668-0.749c0.036-0.041,3.817-4.209,9.349-5.248c0.128-0.024,0.267-0.036,0.413-0.036c1.895,0,4.568,2.008,5.438,2.782
			l0.477,0.424l0.53-0.311c1.936-1.14,7.419-4.14,9.514-4.329c0.077-0.007,0.155-0.01,0.234-0.01c1.971,0,4.796,1.996,5.718,2.765
			l0.456,0.38l0.502-0.276c1.856-1.021,5.206-2.702,6.295-2.866c0.05-0.007,0.101-0.011,0.152-0.011c0.878,0,2.044,0.904,2.42,1.253
			l0.471,0.438l0.537-0.3c1.849-1.041,5.184-2.737,6.259-2.857c0.041-0.005,0.082-0.007,0.123-0.007
			c0.941,0,2.033,1.086,2.375,1.504l0.95,1.163l0.539-1.271c0.242-0.244,2.002-1.756,8.424-1.756c5.355,0,14.47-0.027,25.304-0.059
			c15.791-0.047,35.444-0.105,52.292-0.105c16.317,0,27.083,0.054,32.913,0.164c3.585,0.068,7.674,1.078,7.714,1.088l1.171,0.292
			l0.017-1.075c0.329-0.216,1.407-0.711,4.393-0.711c0.911,0,1.942,0.046,3.063,0.136c1.494,0.12,2.145,0.412,2.393,0.568v1.127
			l1.22-0.343l7.895-2.223l4.331-1.219l-4.331-1.219l-7.895-2.223l-1.22-0.343v1.129c-0.247,0.156-0.894,0.448-2.381,0.57
			c-1.131,0.092-2.169,0.139-3.087,0.139c-2.984,0-4.057-0.498-4.383-0.715l-0.019-1.078l-1.17,0.292
			c-0.041,0.01-4.135,1.022-7.714,1.088c-5.121,0.094-15.678,0.141-31.377,0.141c-33.176,0-78.673-0.214-79.129-0.216
			c-6.419-0.03-8.195-1.469-8.444-1.706l-0.626-1.385l-0.849,1.305c-0.34,0.416-1.432,1.502-2.371,1.502
			c-0.041,0-0.083-0.002-0.124-0.007c-1.075-0.122-4.41-1.817-6.259-2.858l-0.538-0.303l-0.472,0.442
			c-0.374,0.347-1.54,1.251-2.418,1.251c-0.051,0-0.103-0.003-0.153-0.011c-1.089-0.164-4.439-1.844-6.295-2.866l-0.502-0.276
			l-0.457,0.381c-0.922,0.769-3.747,2.766-5.714,2.766c-0.08,0-0.159-0.003-0.237-0.01c-2.095-0.188-7.578-3.188-9.514-4.329
			l-0.529-0.312l-0.477,0.424c-0.87,0.774-3.543,2.782-5.438,2.782c-0.146,0-0.285-0.012-0.414-0.036
			c-5.53-1.039-9.31-5.207-9.348-5.249L244.55,197L244.55,197z M224.686,206.235l3.417-1.538l1.522,0.685
			c-0.654,0.302-1.341,0.572-1.901,0.682c-0.595,0.117-1.435,0.176-2.497,0.176C225.046,206.24,224.865,206.238,224.686,206.235
			L224.686,206.235z M259.476,205.382l1.522-0.685l3.416,1.538c-0.179,0.003-0.36,0.005-0.541,0.005
			c-1.062,0-1.902-0.059-2.498-0.176C260.816,205.954,260.13,205.684,259.476,205.382L259.476,205.382z M211.466,206.262
			l0.189-0.085l0.182,0.082C211.714,206.261,211.59,206.262,211.466,206.262L211.466,206.262z M277.263,206.26l0.183-0.082
			l0.19,0.085C277.511,206.262,277.387,206.261,277.263,206.26L277.263,206.26z M242.285,208.68
			c0.986-0.435,1.845-0.765,2.264-0.921c0.419,0.156,1.278,0.486,2.263,0.921c-0.691,0.309-1.731,0.779-2.263,1.019
			C244.017,209.459,242.977,208.99,242.285,208.68L242.285,208.68z M277.308,211.119c0.091-0.001,0.184-0.002,0.276-0.002
			l-0.14,0.063L277.308,211.119L277.308,211.119z M211.655,211.181l-0.142-0.064c0.094,0.001,0.187,0.001,0.28,0.002
			L211.655,211.181L211.655,211.181z M259.473,211.976c0.647-0.299,1.327-0.564,1.884-0.672c0.592-0.116,1.43-0.174,2.493-0.174
			c0.181,0,0.361,0.002,0.541,0.005l-3.393,1.528L259.473,211.976L259.473,211.976z M224.709,211.134
			c0.18-0.003,0.361-0.005,0.541-0.005c1.062,0,1.901,0.058,2.492,0.174c0.558,0.108,1.237,0.374,1.885,0.673l-1.524,0.686
			L224.709,211.134L224.709,211.134z"/>
	</g>
</g>
</svg>
