<?xml version="1.0" encoding="iso-8859-1"?>
<!-- Generator: Adobe Illustrator 29.5.1, SVG Export Plug-In . SVG Version: 9.03 Build 0)  -->
<svg version="1.1" id="Layer_1" xmlns:serif="http://www.serif.com/"
	 xmlns="http://www.w3.org/2000/svg" xmlns:xlink="http://www.w3.org/1999/xlink" x="0px" y="0px" viewBox="0 0 400 16"
	 style="enable-background:new 0 0 400 16;" xml:space="preserve">
<path style="fill:#D4C484;" d="M392.11,6.23c0,0,0,0.89-3.32,1.1c-1.22,0.08-2.26,0.12-3.15,0.12c-5.35,0-5.38-1.22-5.38-1.22
	s-4.17,0.83-7.89,0.89c-5.71,0.08-17.52,0.11-31.39,0.11c-33.57,0-79.14-0.17-79.14-0.17c-7.89-0.03-9.21-1.72-9.21-1.72
	s-1.5,1.49-3.07,1.49c-0.07,0-0.15-0.01-0.22-0.01c-1.64-0.15-6.58-2.37-6.58-2.37s-1.6,1.2-3.01,1.2c-0.1,0-0.19-0.01-0.28-0.02
	c-1.64-0.2-6.57-2.37-6.57-2.37s-3.56,2.38-6.27,2.38c-0.11,0-0.21,0-0.31-0.01c-2.74-0.2-9.87-3.55-9.87-3.55s-3.38,2.41-6.02,2.41
	c-0.19,0-0.38-0.02-0.56-0.04C203.95,3.56,200,0,200,0s-3.95,3.56-9.87,4.45c-0.18,0.02-0.37,0.04-0.56,0.04
	c-2.64,0-6.02-2.42-6.02-2.42s-7.12,3.36-9.86,3.56c-0.11,0.01-0.21,0.01-0.31,0.01c-2.71,0-6.27-2.38-6.27-2.38
	s-4.94,2.17-6.58,2.37c-0.09,0.01-0.18,0.02-0.27,0.02c-1.42,0-3.02-1.2-3.02-1.2s-4.94,2.22-6.58,2.37c-0.07,0-0.14,0.01-0.22,0.01
	c-1.57,0-3.07-1.49-3.07-1.49s-1.32,1.68-9.21,1.71c0,0-45.57,0.18-79.13,0.18c-13.87,0-25.69-0.03-31.4-0.12
	c-3.71-0.05-7.89-0.89-7.89-0.89s-0.03,1.22-5.37,1.22c-0.9,0-1.94-0.03-3.16-0.11C7.9,7.11,7.9,6.22,7.9,6.22L0,8l7.9,1.78
	c0,0,0-0.89,3.32-1.1c1.21-0.08,2.24-0.11,3.13-0.11c5.36,0,5.39,1.21,5.39,1.21s4.17-0.83,7.89-0.89
	c6.51-0.1,18.75-0.13,32.93-0.13c28.35,0,64.4,0.13,77.6,0.13c7.89,0,9.21,1.78,9.21,1.78s1.5-1.49,3.07-1.49
	c0.07,0,0.15,0,0.22,0.01c1.64,0.15,6.58,2.37,6.58,2.37s1.6-1.2,3.01-1.2c0.1,0,0.19,0,0.28,0.01c1.64,0.2,6.57,2.37,6.57,2.37
	s3.56-2.38,6.27-2.38c0.11,0,0.21,0.01,0.31,0.02c2.74,0.19,9.87,3.55,9.87,3.55s3.38-2.41,6.02-2.41c0.19,0,0.38,0.01,0.56,0.04
	C196.05,12.45,200,16,200,16s3.95-3.55,9.87-4.44c0.18-0.03,0.37-0.04,0.56-0.04c2.64,0,6.02,2.41,6.02,2.41s7.13-3.36,9.87-3.55
	c0.1-0.01,0.2-0.02,0.31-0.02c2.71,0,6.27,2.39,6.27,2.39s4.93-2.18,6.58-2.37c0.09-0.02,0.18-0.02,0.27-0.02
	c1.41,0,3.02,1.2,3.02,1.2s4.93-2.22,6.57-2.37c0.08-0.01,0.15-0.01,0.22-0.01c1.57,0,3.07,1.49,3.07,1.49s1.32-1.78,9.21-1.78
	c13.21,0,49.25-0.13,77.6-0.13c14.17,0,26.42,0.03,32.93,0.13c3.72,0.06,7.89,0.89,7.89,0.89s0.03-1.21,5.39-1.21
	c0.89,0,1.92,0.03,3.13,0.11c3.33,0.21,3.33,1.1,3.33,1.1L400,8L392.11,6.23z M157.24,9.88l-2.6-0.93c0,0,0.55-0.04,1.11-0.04
	c0.32,0,0.63,0.01,0.85,0.05c0.59,0.1,1.6,0.58,1.6,0.58L157.24,9.88z M156.54,7.07c-0.22,0.04-0.54,0.05-0.86,0.05
	c-0.55,0-1.1-0.04-1.1-0.04l2.66-0.96l0.96,0.35C158.2,6.47,157.14,6.97,156.54,7.07z M167.1,11.07l-4.25-1.53
	c0,0,0.8-0.49,1.48-0.54c0.49-0.03,1.34-0.05,2.24-0.05c1.3,0,2.71,0.03,3.4,0.09c0.64,0.04,1.39,0.5,1.39,0.5L167.1,11.07z
	 M169.93,6.98c-0.68,0.06-2.08,0.09-3.36,0.09c-0.88,0-1.71-0.01-2.2-0.05c-0.7-0.05-1.52-0.55-1.52-0.55l4.25-1.53l4.26,1.53
	C171.36,6.47,170.59,6.93,169.93,6.98z M183.55,3.75l4.25,1.54c0,0-2.72,1.33-4.47,1.61c-0.73,0.11-1.69,0.15-2.65,0.15
	c-1.34,0-2.67-0.07-3.38-0.11c-0.6-0.04-1.29-0.47-1.29-0.47L183.55,3.75z M183.55,12.25l-7.54-2.71c0,0,0.68-0.43,1.27-0.46
	c0.71-0.04,2.07-0.12,3.42-0.12c0.96,0,1.92,0.04,2.65,0.15c1.75,0.28,4.46,1.61,4.46,1.61L183.55,12.25z M190.13,9.88
	c0,0-2.39-0.62-2.05-0.74c0.15-0.05,0.94-0.08,1.78-0.08c1,0,2.08,0.04,2.26,0.11C192.46,9.29,190.13,9.88,190.13,9.88z
	 M192.13,6.84c-0.19,0.07-1.3,0.11-2.31,0.11c-0.83,0-1.61-0.03-1.75-0.08c-0.34-0.12,2.06-0.75,2.06-0.75S192.47,6.72,192.13,6.84z
	 M205.22,11.56L200,13.44l-5.22-1.88l0.02-0.01l-2.07-0.73c0,0,1.84-0.87,2.62-0.92h0.13c2,0,4.52,2.55,4.52,2.55
	s2.52-2.55,4.52-2.55h0.13c0.77,0.05,2.61,0.92,2.61,0.92l-2.06,0.73L205.22,11.56z M194.74,8c0,0,1.69-0.59,2.38-0.84
	C198.68,6.6,200,6.22,200,6.22s1.32,0.38,2.88,0.94c0.68,0.25,2.38,0.84,2.38,0.84s-1.59,0.56-2.38,0.84C202,9.16,200,9.88,200,9.88
	s-2.01-0.72-2.88-1.04C196.33,8.56,194.74,8,194.74,8z M204.67,6.11h-0.13c-2.02,0-4.54-2.55-4.54-2.55s-2.52,2.55-4.54,2.55h-0.13
	c-0.78-0.05-2.64-0.94-2.64-0.94l2.64-0.93h0.02L200,2.57l4.65,1.67h0.02l2.64,0.93C207.31,5.17,205.45,6.06,204.67,6.11z
	 M209.87,9.88c0,0-2.33-0.59-1.99-0.71c0.19-0.07,1.27-0.11,2.27-0.11c0.84,0,1.62,0.03,1.77,0.08
	C212.25,9.26,209.87,9.88,209.87,9.88z M211.93,6.87c-0.15,0.05-0.92,0.08-1.76,0.08c-1.01,0-2.11-0.04-2.3-0.11
	c-0.34-0.12,2-0.72,2-0.72S212.27,6.75,211.93,6.87z M216.45,12.25l-4.26-1.53c0,0,2.71-1.33,4.46-1.61
	c0.73-0.11,1.69-0.15,2.65-0.15c1.35,0,2.71,0.08,3.42,0.12c0.59,0.03,1.27,0.46,1.27,0.46L216.45,12.25z M222.7,6.94
	c-0.71,0.04-2.04,0.11-3.38,0.11c-0.95,0-1.92-0.04-2.65-0.15c-1.75-0.28-4.47-1.61-4.47-1.61l4.25-1.54l7.54,2.72
	C223.99,6.47,223.3,6.9,222.7,6.94z M232.89,11.07l-4.25-1.53c0,0,0.75-0.46,1.39-0.5c0.69-0.06,2.1-0.09,3.39-0.09
	c0.91,0,1.76,0.02,2.25,0.05c0.68,0.05,1.48,0.54,1.48,0.54L232.89,11.07z M235.62,7.02c-0.48,0.04-1.3,0.05-2.19,0.05
	c-1.27,0-2.68-0.03-3.36-0.08c-0.66-0.06-1.43-0.52-1.43-0.52l4.26-1.53l4.25,1.53C237.15,6.47,236.33,6.97,235.62,7.02z
	 M242.76,9.88l-0.96-0.34c0,0,1.01-0.48,1.61-0.58c0.21-0.04,0.52-0.05,0.83-0.05c0.56,0,1.12,0.04,1.12,0.04L242.76,9.88z
	 M244.31,7.12c-0.31,0-0.63-0.01-0.85-0.05c-0.6-0.1-1.66-0.6-1.66-0.6l0.96-0.35l2.66,0.96C245.42,7.08,244.87,7.12,244.31,7.12z
	 M392.11,6.23c0,0,0,0.89-3.32,1.1c-1.22,0.08-2.26,0.12-3.15,0.12c-5.35,0-5.38-1.22-5.38-1.22s-4.17,0.83-7.89,0.89
	c-5.71,0.08-17.52,0.11-31.39,0.11c-33.57,0-79.14-0.17-79.14-0.17c-7.89-0.03-9.21-1.72-9.21-1.72s-1.5,1.49-3.07,1.49
	c-0.07,0-0.15-0.01-0.22-0.01c-1.64-0.15-6.58-2.37-6.58-2.37s-1.6,1.2-3.01,1.2c-0.1,0-0.19-0.01-0.28-0.02
	c-1.64-0.2-6.57-2.37-6.57-2.37s-3.56,2.38-6.27,2.38c-0.11,0-0.21,0-0.31-0.01c-2.74-0.2-9.87-3.55-9.87-3.55s-3.38,2.41-6.02,2.41
	c-0.19,0-0.38-0.02-0.56-0.04C203.95,3.56,200,0,200,0s-3.95,3.56-9.87,4.45c-0.18,0.02-0.37,0.04-0.56,0.04
	c-2.64,0-6.02-2.42-6.02-2.42s-7.12,3.36-9.86,3.56c-0.11,0.01-0.21,0.01-0.31,0.01c-2.71,0-6.27-2.38-6.27-2.38
	s-4.94,2.17-6.58,2.37c-0.09,0.01-0.18,0.02-0.27,0.02c-1.42,0-3.02-1.2-3.02-1.2s-4.94,2.22-6.58,2.37c-0.07,0-0.14,0.01-0.22,0.01
	c-1.57,0-3.07-1.49-3.07-1.49s-1.32,1.68-9.21,1.71c0,0-45.57,0.18-79.13,0.18c-13.87,0-25.69-0.03-31.4-0.12
	c-3.71-0.05-7.89-0.89-7.89-0.89s-0.03,1.22-5.37,1.22c-0.9,0-1.94-0.03-3.16-0.11C7.9,7.11,7.9,6.22,7.9,6.22L0,8l7.9,1.78
	c0,0,0-0.89,3.32-1.1c1.21-0.08,2.24-0.11,3.13-0.11c5.36,0,5.39,1.21,5.39,1.21s4.17-0.83,7.89-0.89
	c6.51-0.1,18.75-0.13,32.93-0.13c28.35,0,64.4,0.13,77.6,0.13c7.89,0,9.21,1.78,9.21,1.78s1.5-1.49,3.07-1.49
	c0.07,0,0.15,0,0.22,0.01c1.64,0.15,6.58,2.37,6.58,2.37s1.6-1.2,3.01-1.2c0.1,0,0.19,0,0.28,0.01c1.64,0.2,6.57,2.37,6.57,2.37
	s3.56-2.38,6.27-2.38c0.11,0,0.21,0.01,0.31,0.02c2.74,0.19,9.87,3.55,9.87,3.55s3.38-2.41,6.02-2.41c0.19,0,0.38,0.01,0.56,0.04
	C196.05,12.45,200,16,200,16s3.95-3.55,9.87-4.44c0.18-0.03,0.37-0.04,0.56-0.04c2.64,0,6.02,2.41,6.02,2.41s7.13-3.36,9.87-3.55
	c0.1-0.01,0.2-0.02,0.31-0.02c2.71,0,6.27,2.39,6.27,2.39s4.93-2.18,6.58-2.37c0.09-0.02,0.18-0.02,0.27-0.02
	c1.41,0,3.02,1.2,3.02,1.2s4.93-2.22,6.57-2.37c0.08-0.01,0.15-0.01,0.22-0.01c1.57,0,3.07,1.49,3.07,1.49s1.32-1.78,9.21-1.78
	c13.21,0,49.25-0.13,77.6-0.13c14.17,0,26.42,0.03,32.93,0.13c3.72,0.06,7.89,0.89,7.89,0.89s0.03-1.21,5.39-1.21
	c0.89,0,1.92,0.03,3.13,0.11c3.33,0.21,3.33,1.1,3.33,1.1L400,8L392.11,6.23z M157.24,9.88l-2.6-0.93c0,0,0.55-0.04,1.11-0.04
	c0.32,0,0.63,0.01,0.85,0.05c0.59,0.1,1.6,0.58,1.6,0.58L157.24,9.88z M156.54,7.07c-0.22,0.04-0.54,0.05-0.86,0.05
	c-0.55,0-1.1-0.04-1.1-0.04l2.66-0.96l0.96,0.35C158.2,6.47,157.14,6.97,156.54,7.07z M167.1,11.07l-4.25-1.53
	c0,0,0.8-0.49,1.48-0.54c0.49-0.03,1.34-0.05,2.24-0.05c1.3,0,2.71,0.03,3.4,0.09c0.64,0.04,1.39,0.5,1.39,0.5L167.1,11.07z
	 M169.93,6.98c-0.68,0.06-2.08,0.09-3.36,0.09c-0.88,0-1.71-0.01-2.2-0.05c-0.7-0.05-1.52-0.55-1.52-0.55l4.25-1.53l4.26,1.53
	C171.36,6.47,170.59,6.93,169.93,6.98z M183.55,3.75l4.25,1.54c0,0-2.72,1.33-4.47,1.61c-0.73,0.11-1.69,0.15-2.65,0.15
	c-1.34,0-2.67-0.07-3.38-0.11c-0.6-0.04-1.29-0.47-1.29-0.47L183.55,3.75z M183.55,12.25l-7.54-2.71c0,0,0.68-0.43,1.27-0.46
	c0.71-0.04,2.07-0.12,3.42-0.12c0.96,0,1.92,0.04,2.65,0.15c1.75,0.28,4.46,1.61,4.46,1.61L183.55,12.25z M190.13,9.88
	c0,0-2.39-0.62-2.05-0.74c0.15-0.05,0.94-0.08,1.78-0.08c1,0,2.08,0.04,2.26,0.11C192.46,9.29,190.13,9.88,190.13,9.88z
	 M192.13,6.84c-0.19,0.07-1.3,0.11-2.31,0.11c-0.83,0-1.61-0.03-1.75-0.08c-0.34-0.12,2.06-0.75,2.06-0.75S192.47,6.72,192.13,6.84z
	 M205.22,11.56L200,13.44l-5.22-1.88l0.02-0.01l-2.07-0.73c0,0,1.84-0.87,2.62-0.92h0.13c2,0,4.52,2.55,4.52,2.55
	s2.52-2.55,4.52-2.55h0.13c0.77,0.05,2.61,0.92,2.61,0.92l-2.06,0.73L205.22,11.56z M194.74,8c0,0,1.69-0.59,2.38-0.84
	C198.68,6.6,200,6.22,200,6.22s1.32,0.38,2.88,0.94c0.68,0.25,2.38,0.84,2.38,0.84s-1.59,0.56-2.38,0.84C202,9.16,200,9.88,200,9.88
	s-2.01-0.72-2.88-1.04C196.33,8.56,194.74,8,194.74,8z M204.67,6.11h-0.13c-2.02,0-4.54-2.55-4.54-2.55s-2.52,2.55-4.54,2.55h-0.13
	c-0.78-0.05-2.64-0.94-2.64-0.94l2.64-0.93h0.02L200,2.57l4.65,1.67h0.02l2.64,0.93C207.31,5.17,205.45,6.06,204.67,6.11z
	 M209.87,9.88c0,0-2.33-0.59-1.99-0.71c0.19-0.07,1.27-0.11,2.27-0.11c0.84,0,1.62,0.03,1.77,0.08
	C212.25,9.26,209.87,9.88,209.87,9.88z M211.93,6.87c-0.15,0.05-0.92,0.08-1.76,0.08c-1.01,0-2.11-0.04-2.3-0.11
	c-0.34-0.12,2-0.72,2-0.72S212.27,6.75,211.93,6.87z M216.45,12.25l-4.26-1.53c0,0,2.71-1.33,4.46-1.61
	c0.73-0.11,1.69-0.15,2.65-0.15c1.35,0,2.71,0.08,3.42,0.12c0.59,0.03,1.27,0.46,1.27,0.46L216.45,12.25z M222.7,6.94
	c-0.71,0.04-2.04,0.11-3.38,0.11c-0.95,0-1.92-0.04-2.65-0.15c-1.75-0.28-4.47-1.61-4.47-1.61l4.25-1.54l7.54,2.72
	C223.99,6.47,223.3,6.9,222.7,6.94z M232.89,11.07l-4.25-1.53c0,0,0.75-0.46,1.39-0.5c0.69-0.06,2.1-0.09,3.39-0.09
	c0.91,0,1.76,0.02,2.25,0.05c0.68,0.05,1.48,0.54,1.48,0.54L232.89,11.07z M235.62,7.02c-0.48,0.04-1.3,0.05-2.19,0.05
	c-1.27,0-2.68-0.03-3.36-0.08c-0.66-0.06-1.43-0.52-1.43-0.52l4.26-1.53l4.25,1.53C237.15,6.47,236.33,6.97,235.62,7.02z
	 M242.76,9.88l-0.96-0.34c0,0,1.01-0.48,1.61-0.58c0.21-0.04,0.52-0.05,0.83-0.05c0.56,0,1.12,0.04,1.12,0.04L242.76,9.88z
	 M244.31,7.12c-0.31,0-0.63-0.01-0.85-0.05c-0.6-0.1-1.66-0.6-1.66-0.6l0.96-0.35l2.66,0.96C245.42,7.08,244.87,7.12,244.31,7.12z
	 M392.11,6.23c0,0,0,0.89-3.32,1.1c-1.22,0.08-2.26,0.12-3.15,0.12c-5.35,0-5.38-1.22-5.38-1.22s-4.17,0.83-7.89,0.89
	c-5.71,0.08-17.52,0.11-31.39,0.11c-33.57,0-79.14-0.17-79.14-0.17c-7.89-0.03-9.21-1.72-9.21-1.72s-1.5,1.49-3.07,1.49
	c-0.07,0-0.15-0.01-0.22-0.01c-1.64-0.15-6.58-2.37-6.58-2.37s-1.6,1.2-3.01,1.2c-0.1,0-0.19-0.01-0.28-0.02
	c-1.64-0.2-6.57-2.37-6.57-2.37s-3.56,2.38-6.27,2.38c-0.11,0-0.21,0-0.31-0.01c-2.74-0.2-9.87-3.55-9.87-3.55s-3.38,2.41-6.02,2.41
	c-0.19,0-0.38-0.02-0.56-0.04C203.95,3.56,200,0,200,0s-3.95,3.56-9.87,4.45c-0.18,0.02-0.37,0.04-0.56,0.04
	c-2.64,0-6.02-2.42-6.02-2.42s-7.12,3.36-9.86,3.56c-0.11,0.01-0.21,0.01-0.31,0.01c-2.71,0-6.27-2.38-6.27-2.38
	s-4.94,2.17-6.58,2.37c-0.09,0.01-0.18,0.02-0.27,0.02c-1.42,0-3.02-1.2-3.02-1.2s-4.94,2.22-6.58,2.37c-0.07,0-0.14,0.01-0.22,0.01
	c-1.57,0-3.07-1.49-3.07-1.49s-1.32,1.68-9.21,1.71c0,0-45.57,0.18-79.13,0.18c-13.87,0-25.69-0.03-31.4-0.12
	c-3.71-0.05-7.89-0.89-7.89-0.89s-0.03,1.22-5.37,1.22c-0.9,0-1.94-0.03-3.16-0.11C7.9,7.11,7.9,6.22,7.9,6.22L0,8l7.9,1.78
	c0,0,0-0.89,3.32-1.1c1.21-0.08,2.24-0.11,3.13-0.11c5.36,0,5.39,1.21,5.39,1.21s4.17-0.83,7.89-0.89
	c6.51-0.1,18.75-0.13,32.93-0.13c28.35,0,64.4,0.13,77.6,0.13c7.89,0,9.21,1.78,9.21,1.78s1.5-1.49,3.07-1.49
	c0.07,0,0.15,0,0.22,0.01c1.64,0.15,6.58,2.37,6.58,2.37s1.6-1.2,3.01-1.2c0.1,0,0.19,0,0.28,0.01c1.64,0.2,6.57,2.37,6.57,2.37
	s3.56-2.38,6.27-2.38c0.11,0,0.21,0.01,0.31,0.02c2.74,0.19,9.87,3.55,9.87,3.55s3.38-2.41,6.02-2.41c0.19,0,0.38,0.01,0.56,0.04
	C196.05,12.45,200,16,200,16s3.95-3.55,9.87-4.44c0.18-0.03,0.37-0.04,0.56-0.04c2.64,0,6.02,2.41,6.02,2.41s7.13-3.36,9.87-3.55
	c0.1-0.01,0.2-0.02,0.31-0.02c2.71,0,6.27,2.39,6.27,2.39s4.93-2.18,6.58-2.37c0.09-0.02,0.18-0.02,0.27-0.02
	c1.41,0,3.02,1.2,3.02,1.2s4.93-2.22,6.57-2.37c0.08-0.01,0.15-0.01,0.22-0.01c1.57,0,3.07,1.49,3.07,1.49s1.32-1.78,9.21-1.78
	c13.21,0,49.25-0.13,77.6-0.13c14.17,0,26.42,0.03,32.93,0.13c3.72,0.06,7.89,0.89,7.89,0.89s0.03-1.21,5.39-1.21
	c0.89,0,1.92,0.03,3.13,0.11c3.33,0.21,3.33,1.1,3.33,1.1L400,8L392.11,6.23z M157.24,9.88l-2.6-0.93c0,0,0.55-0.04,1.11-0.04
	c0.32,0,0.63,0.01,0.85,0.05c0.59,0.1,1.6,0.58,1.6,0.58L157.24,9.88z M156.54,7.07c-0.22,0.04-0.54,0.05-0.86,0.05
	c-0.55,0-1.1-0.04-1.1-0.04l2.66-0.96l0.96,0.35C158.2,6.47,157.14,6.97,156.54,7.07z M167.1,11.07l-4.25-1.53
	c0,0,0.8-0.49,1.48-0.54c0.49-0.03,1.34-0.05,2.24-0.05c1.3,0,2.71,0.03,3.4,0.09c0.64,0.04,1.39,0.5,1.39,0.5L167.1,11.07z
	 M169.93,6.98c-0.68,0.06-2.08,0.09-3.36,0.09c-0.88,0-1.71-0.01-2.2-0.05c-0.7-0.05-1.52-0.55-1.52-0.55l4.25-1.53l4.26,1.53
	C171.36,6.47,170.59,6.93,169.93,6.98z M183.55,3.75l4.25,1.54c0,0-2.72,1.33-4.47,1.61c-0.73,0.11-1.69,0.15-2.65,0.15
	c-1.34,0-2.67-0.07-3.38-0.11c-0.6-0.04-1.29-0.47-1.29-0.47L183.55,3.75z M183.55,12.25l-7.54-2.71c0,0,0.68-0.43,1.27-0.46
	c0.71-0.04,2.07-0.12,3.42-0.12c0.96,0,1.92,0.04,2.65,0.15c1.75,0.28,4.46,1.61,4.46,1.61L183.55,12.25z M190.13,9.88
	c0,0-2.39-0.62-2.05-0.74c0.15-0.05,0.94-0.08,1.78-0.08c1,0,2.08,0.04,2.26,0.11C192.46,9.29,190.13,9.88,190.13,9.88z
	 M192.13,6.84c-0.19,0.07-1.3,0.11-2.31,0.11c-0.83,0-1.61-0.03-1.75-0.08c-0.34-0.12,2.06-0.75,2.06-0.75S192.47,6.72,192.13,6.84z
	 M205.22,11.56L200,13.44l-5.22-1.88l0.02-0.01l-2.07-0.73c0,0,1.84-0.87,2.62-0.92h0.13c2,0,4.52,2.55,4.52,2.55
	s2.52-2.55,4.52-2.55h0.13c0.77,0.05,2.61,0.92,2.61,0.92l-2.06,0.73L205.22,11.56z M194.74,8c0,0,1.69-0.59,2.38-0.84
	C198.68,6.6,200,6.22,200,6.22s1.32,0.38,2.88,0.94c0.68,0.25,2.38,0.84,2.38,0.84s-1.59,0.56-2.38,0.84C202,9.16,200,9.88,200,9.88
	s-2.01-0.72-2.88-1.04C196.33,8.56,194.74,8,194.74,8z M204.67,6.11h-0.13c-2.02,0-4.54-2.55-4.54-2.55s-2.52,2.55-4.54,2.55h-0.13
	c-0.78-0.05-2.64-0.94-2.64-0.94l2.64-0.93h0.02L200,2.57l4.65,1.67h0.02l2.64,0.93C207.31,5.17,205.45,6.06,204.67,6.11z
	 M209.87,9.88c0,0-2.33-0.59-1.99-0.71c0.19-0.07,1.27-0.11,2.27-0.11c0.84,0,1.62,0.03,1.77,0.08
	C212.25,9.26,209.87,9.88,209.87,9.88z M211.93,6.87c-0.15,0.05-0.92,0.08-1.76,0.08c-1.01,0-2.11-0.04-2.3-0.11
	c-0.34-0.12,2-0.72,2-0.72S212.27,6.75,211.93,6.87z M216.45,12.25l-4.26-1.53c0,0,2.71-1.33,4.46-1.61
	c0.73-0.11,1.69-0.15,2.65-0.15c1.35,0,2.71,0.08,3.42,0.12c0.59,0.03,1.27,0.46,1.27,0.46L216.45,12.25z M222.7,6.94
	c-0.71,0.04-2.04,0.11-3.38,0.11c-0.95,0-1.92-0.04-2.65-0.15c-1.75-0.28-4.47-1.61-4.47-1.61l4.25-1.54l7.54,2.72
	C223.99,6.47,223.3,6.9,222.7,6.94z M232.89,11.07l-4.25-1.53c0,0,0.75-0.46,1.39-0.5c0.69-0.06,2.1-0.09,3.39-0.09
	c0.91,0,1.76,0.02,2.25,0.05c0.68,0.05,1.48,0.54,1.48,0.54L232.89,11.07z M235.62,7.02c-0.48,0.04-1.3,0.05-2.19,0.05
	c-1.27,0-2.68-0.03-3.36-0.08c-0.66-0.06-1.43-0.52-1.43-0.52l4.26-1.53l4.25,1.53C237.15,6.47,236.33,6.97,235.62,7.02z
	 M242.76,9.88l-0.96-0.34c0,0,1.01-0.48,1.61-0.58c0.21-0.04,0.52-0.05,0.83-0.05c0.56,0,1.12,0.04,1.12,0.04L242.76,9.88z
	 M244.31,7.12c-0.31,0-0.63-0.01-0.85-0.05c-0.6-0.1-1.66-0.6-1.66-0.6l0.96-0.35l2.66,0.96C245.42,7.08,244.87,7.12,244.31,7.12z"
	/>
</svg>
