<?xml version="1.0" encoding="iso-8859-1"?>
<!-- Generator: Adobe Illustrator 29.5.1, SVG Export Plug-In . SVG Version: 9.03 Build 0)  -->
<svg version="1.1" id="Layer_1" xmlns:serif="http://www.serif.com/"
	 xmlns="http://www.w3.org/2000/svg" xmlns:xlink="http://www.w3.org/1999/xlink" x="0px" y="0px" viewBox="0 0 400.44 16.44"
	 style="enable-background:new 0 0 400.44 16.44;" xml:space="preserve">
<g transform="matrix(1,0,0,0.8,-40,-157.6)">
	
		<path style="fill-rule:evenodd;clip-rule:evenodd;fill:#D4C484;stroke:#576293;stroke-width:0.44;stroke-linejoin:round;stroke-miterlimit:2;" d="
		M240.22,217.275c0,0-3.948-4.444-9.868-5.556c-2.692-0.504-6.58,2.964-6.58,2.964s-7.127-4.199-9.868-4.445
		c-2.741-0.247-6.579,2.963-6.579,2.963s-4.935-2.716-6.579-2.963c-1.472-0.22-3.289,1.481-3.289,1.481s-4.935-2.777-6.58-2.963
		c-1.644-0.185-3.289,1.852-3.289,1.852s-1.316-2.223-9.211-2.223c-19.803,0-91.008-0.369-110.525,0
		c-3.723,0.071-7.895,1.112-7.895,1.112s-0.033-2.061-8.513-1.379c-3.329,0.267-3.329,1.379-3.329,1.379l-7.895-2.223l7.895-2.223
		c0,0,0,1.112,3.316,1.383c8.492,0.695,8.527-1.383,8.527-1.383s4.177,1.044,7.895,1.112c19.517,0.357,110.525-0.075,110.525-0.075
		c7.896-0.037,9.211-2.148,9.211-2.148s1.645,2.037,3.289,1.852c1.645-0.185,6.58-2.963,6.58-2.963s1.817,1.701,3.289,1.481
		c1.644-0.247,6.579-2.963,6.579-2.963s3.837,3.209,6.579,2.963c2.741-0.247,9.868-4.445,9.868-4.445s3.888,3.468,6.58,2.964
		c5.92-1.112,9.868-5.556,9.868-5.556s3.948,4.444,9.868,5.556c2.692,0.504,6.58-2.964,6.58-2.964s7.127,4.199,9.868,4.445
		c2.741,0.247,6.579-2.963,6.579-2.963s4.935,2.716,6.579,2.963c1.472,0.22,3.289-1.481,3.289-1.481s4.935,2.777,6.58,2.963
		c1.644,0.185,3.289-1.852,3.289-1.852s1.315,2.111,9.211,2.148c0,0,91.008,0.432,110.525,0.075
		c3.717-0.068,7.895-1.112,7.895-1.112s0.035,2.077,8.527,1.383c3.316-0.271,3.316-1.383,3.316-1.383l7.895,2.223l-7.895,2.223
		c0,0,0-1.112-3.329-1.379c-8.48-0.683-8.513,1.379-8.513,1.379s-4.172-1.041-7.895-1.112c-19.517-0.369-90.723,0-110.525,0
		c-7.895,0-9.211,2.223-9.211,2.223s-1.645-2.037-3.289-1.852c-1.645,0.185-6.58,2.963-6.58,2.963s-1.817-1.701-3.289-1.481
		c-1.644,0.247-6.579,2.963-6.579,2.963s-3.837-3.209-6.579-2.963c-2.741,0.247-9.868,4.445-9.868,4.445s-3.888-3.468-6.58-2.964
		C244.168,212.831,240.22,217.275,240.22,217.275z M240.22,200.482l-4.649,2.093l-0.024-0.011l-2.636,1.171
		c0,0,1.856,1.113,2.636,1.169c2.041,0.148,4.673-3.185,4.673-3.185s2.632,3.333,4.673,3.185c0.78-0.056,2.636-1.169,2.636-1.169
		l-2.636-1.171l-0.024,0.011L240.22,200.482z M240.22,205.052c0,0-1.316,0.465-2.883,1.172c-0.684,0.308-2.38,1.051-2.38,1.051
		s1.591,0.699,2.381,1.052c0.876,0.391,2.881,1.297,2.881,1.297s2.005-0.907,2.881-1.297c0.791-0.353,2.381-1.052,2.381-1.052
		s-1.696-0.743-2.38-1.051C241.536,205.518,240.22,205.052,240.22,205.052z M240.22,212.831c0,0-2.632-3.333-4.652-3.185
		c-0.773,0.056-2.613,1.155-2.613,1.155l2.065,0.912l-0.016,0.007l5.216,2.349l5.216-2.349l-0.016-0.007l2.065-0.912
		c0,0-1.84-1.099-2.613-1.155C242.852,209.498,240.22,212.831,240.22,212.831z M285.584,208.454c0,0-1.365-0.109-1.959,0.013
		c-0.595,0.124-1.605,0.724-1.605,0.724l0.963,0.433L285.584,208.454z M262.941,208.619c-1.223-0.087-4.315-0.297-6.068,0.045
		c-1.755,0.341-4.459,2.008-4.459,2.008l4.253,1.915l7.541-3.396C264.209,209.191,263.532,208.662,262.941,208.619z
		 M270.287,206.002c1.164,0.113,4.377,0.151,5.559,0.044c0.703-0.064,1.523-0.687,1.523-0.687l-4.253-1.915l-4.253,1.915
		C268.861,205.359,269.631,205.936,270.287,206.002z M275.889,208.524c-1.187-0.104-4.469-0.069-5.64,0.041
		c-0.64,0.061-1.388,0.625-1.388,0.625l4.253,1.915l4.253-1.915C277.368,209.191,276.573,208.584,275.889,208.524z M248.093,205.824
		c0.345,0.155,3.729,0.181,4.061,0.032c0.332-0.149-2.067-0.931-2.067-0.931S247.749,205.668,248.093,205.824z M252.144,208.699
		c-0.332-0.149-3.703-0.125-4.045,0.029s1.989,0.896,1.989,0.896S252.475,208.848,252.144,208.699z M283.681,206.108
		c0.592,0.124,1.961,0.016,1.961,0.016l-2.66-1.199l-0.963,0.433C282.02,205.359,283.077,205.98,283.681,206.108z M256.891,205.894
		c1.751,0.344,4.805,0.137,6.025,0.048c0.603-0.044,1.293-0.583,1.293-0.583l-7.541-3.396l-4.253,1.915
		C252.415,203.878,255.14,205.55,256.891,205.894z M210.153,206.002c0.656-0.065,1.425-0.643,1.425-0.643l-4.253-1.915l-4.253,1.915
		c0,0,0.82,0.623,1.523,0.687C205.776,206.152,208.989,206.115,210.153,206.002z M228.296,208.699
		c-0.331,0.149,2.056,0.925,2.056,0.925s2.332-0.741,1.989-0.896S228.628,208.55,228.296,208.699z M232.347,205.824
		c0.344-0.156-1.995-0.899-1.995-0.899s-2.399,0.781-2.067,0.931C228.617,206.006,232.001,205.979,232.347,205.824z
		 M196.759,206.108c0.604-0.128,1.661-0.749,1.661-0.749l-0.963-0.433l-2.66,1.199C194.797,206.124,196.167,206.232,196.759,206.108
		z M204.551,208.524c-0.684,0.06-1.479,0.667-1.479,0.667l4.253,1.915l4.253-1.915c0,0-0.748-0.564-1.388-0.625
		C209.02,208.455,205.737,208.42,204.551,208.524z M223.549,205.894c1.751-0.344,4.476-2.016,4.476-2.016l-4.253-1.915l-7.541,3.396
		c0,0,0.691,0.539,1.293,0.583C218.744,206.031,221.799,206.238,223.549,205.894z M217.499,208.619
		c-0.591,0.043-1.268,0.572-1.268,0.572l7.541,3.396l4.253-1.915c0,0-2.704-1.667-4.459-2.008
		C221.813,208.322,218.721,208.532,217.499,208.619z M194.856,208.454l2.601,1.171l0.963-0.433c0,0-1.011-0.6-1.605-0.724
		C196.221,208.344,194.856,208.454,194.856,208.454z"/>
</g>
</svg>
